<?xml version="1.0" encoding="UTF-8"?>
<svg version="1.1" xmlns="http://www.w3.org/2000/svg" width="1746" height="380">
<path d="M0 0 C576.18 0 1152.36 0 1746 0 C1746 125.4 1746 250.8 1746 380 C1169.82 380 593.64 380 0 380 C0 254.6 0 129.2 0 0 Z " fill="#FDFDFD" transform="translate(0,0)"/>
<path d="M0 0 C2.63324877 2.33141569 5.13259324 4.75913296 7.67578125 7.19921875 C8.00578125 -1.38078125 8.33578125 -9.96078125 8.67578125 -18.80078125 C27.81578125 -18.80078125 46.95578125 -18.80078125 66.67578125 -18.80078125 C66.67578125 61.38921875 66.67578125 141.57921875 66.67578125 224.19921875 C48.52578125 224.19921875 30.37578125 224.19921875 11.67578125 224.19921875 C11.34578125 216.27921875 11.01578125 208.35921875 10.67578125 200.19921875 C8.96390625 201.84921875 7.25203125 203.49921875 5.48828125 205.19921875 C-16.39897584 225.53792008 -44.13414981 232.30684996 -73.2734375 231.55859375 C-81.53311946 231.21275308 -89.31470286 230.2059602 -97.32421875 228.19921875 C-98.46632813 227.94398438 -99.6084375 227.68875 -100.78515625 227.42578125 C-119.692297 222.7098125 -138.15971707 212.6801706 -151.32421875 198.19921875 C-152.12859375 197.41546875 -152.93296875 196.63171875 -153.76171875 195.82421875 C-154.60734375 194.95796875 -155.45296875 194.09171875 -156.32421875 193.19921875 C-156.88496094 192.64621094 -157.44570313 192.09320313 -158.0234375 191.5234375 C-181.35952443 167.1459836 -190.06880427 132.28786451 -189.5078125 99.45703125 C-188.49978718 64.45789116 -173.55281335 31.28023748 -148.23828125 7.203125 C-108.82758244 -28.62705528 -41.84721862 -36.15151992 0 0 Z " fill="#0B4A94" transform="translate(434.32421875,140.80078125)"/>
<path d="M0 0 C0.74088867 0.18272461 1.48177734 0.36544922 2.24511719 0.55371094 C33.36783457 8.46098457 60.90050148 30.87425951 77.34863281 58.24414062 C89.62795294 79.52592097 95.23435111 100.12902929 95.3125 124.6875 C95.32095947 126.62906982 95.32095947 126.62906982 95.32958984 128.60986328 C95.2407733 140.44654972 94.11915122 151.97712364 90.375 163.25 C90.11557617 164.04374023 89.85615234 164.83748047 89.58886719 165.65527344 C82.81411048 185.7884811 73.23047034 202.45592362 58.33837891 217.62646484 C57.17591471 218.8194644 56.04400444 220.04208897 54.91796875 221.26953125 C37.46449709 239.89881574 7.64215196 253.14593387 -17.63769531 254.14355469 C-21.86242545 254.25964114 -26.08633206 254.29770832 -30.3125 254.3125 C-31.00427338 254.31635712 -31.69604675 254.32021423 -32.40878296 254.32418823 C-40.79721987 254.34719205 -48.80093228 253.87086493 -57 252 C-58.22847656 251.73960937 -59.45695312 251.47921875 -60.72265625 251.2109375 C-93.21256083 243.07896138 -119.42841352 222.72546825 -137.1875 194.5 C-150.44143769 172.35750886 -156.33309615 149.85569796 -156.4375 124.125 C-156.4475708 122.85462891 -156.4576416 121.58425781 -156.46801758 120.27539062 C-156.3573665 108.16498331 -154.25095555 96.52671064 -150.3125 85.0625 C-150.05758789 84.31508545 -149.80267578 83.5676709 -149.54003906 82.79760742 C-143.21543174 64.89866645 -133.2382078 48.60403047 -120 35 C-119.24332031 34.18144531 -118.48664062 33.36289063 -117.70703125 32.51953125 C-111.14848791 25.61861697 -103.88942006 20.24852048 -96 15 C-95.14535156 14.4225 -94.29070312 13.845 -93.41015625 13.25 C-83.6525462 7.01552037 -72.69748835 3.32585842 -61.625 0.1875 C-60.90054687 -0.0194751 -60.17609375 -0.2264502 -59.4296875 -0.43969727 C-40.77296206 -5.49326968 -18.63554945 -4.82091632 0 0 Z " fill="#339C41" transform="translate(1142,116)"/>
<path d="M0 0 C19.47 0 38.94 0 59 0 C59 45.21 59 90.42 59 137 C60.65 135.35 62.3 133.7 64 132 C70.50094705 125.72092828 77.16676043 120.5183034 85 116 C86.14855469 115.32324219 86.14855469 115.32324219 87.3203125 114.6328125 C107.52381551 103.60649391 132.83605158 102.31493773 155 107 C156.01320313 107.15984375 157.02640625 107.3196875 158.0703125 107.484375 C172.38216794 110.08653054 184.92821991 117.66370851 195 128 C195.886875 128.825 196.77375 129.65 197.6875 130.5 C219.78100326 154.38486839 225.40022431 188.19548756 225.22705078 219.69946289 C225.22648442 221.17978406 225.22680759 222.66010579 225.22793579 224.14042664 C225.22850156 228.09802266 225.21687543 232.05549348 225.20278788 236.01306081 C225.19014877 240.17165925 225.18909977 244.33026165 225.18673706 248.48887634 C225.18056053 256.33651575 225.16420245 264.18409837 225.14403808 272.03171295 C225.12155877 280.97751541 225.11065562 289.92332081 225.10064721 298.86914456 C225.07983208 317.24613495 225.0432047 335.62304766 225 354 C205.53 354 186.06 354 166 354 C165.97812622 347.68113647 165.97812622 347.68113647 165.95581055 341.23461914 C165.90532558 327.26877478 165.83885329 313.30303965 165.76428509 299.33730412 C165.71948936 290.87535416 165.68003821 282.41344477 165.65356445 273.95141602 C165.63045199 266.56826081 165.59690879 259.18523575 165.55129844 251.80218405 C165.52754305 247.89984769 165.5086994 243.99763879 165.50238609 240.09523201 C165.99741664 204.19913537 165.99741664 204.19913537 150 173 C138.44391919 162.56487941 124.10902377 159.31320847 109.02587891 159.86816406 C97.55142725 160.61487458 86.12095789 165.87904211 78 174 C65.77454903 189.0017486 60.37949232 204.53667424 60.45410156 223.89990234 C60.44533972 225.33053191 60.434845 226.76115172 60.42277527 228.1917572 C60.39521337 232.0276626 60.39150388 235.86324358 60.39249516 239.69923353 C60.38934005 243.72579969 60.36366854 247.75222517 60.34051514 251.77871704 C60.3001487 259.38205725 60.27966029 266.98531211 60.26654124 274.58874285 C60.25060514 283.25403306 60.21216216 291.9191794 60.17194796 300.58438563 C60.08981421 318.3895705 60.03852675 336.19466369 60 354 C40.2 354 20.4 354 0 354 C0 237.18 0 120.36 0 0 Z " fill="#0C4A95" transform="translate(1508,11)"/>
<path d="M0 0 C1.37671875 0.27263672 1.37671875 0.27263672 2.78125 0.55078125 C17.14929133 4.07095138 28.89199318 13.67753759 39 24 C39.67417969 24.64195312 40.34835937 25.28390625 41.04296875 25.9453125 C65.83994255 51.25297912 65.63758237 93.63411947 65.40557575 126.42999959 C65.38012938 130.65125751 65.37818679 134.87253402 65.37347412 139.09385681 C65.3611687 147.04401741 65.3285205 154.99395119 65.28807616 162.94401306 C65.24296495 172.01331178 65.22127374 181.08262282 65.20129442 190.15200627 C65.15977269 208.7681579 65.0865814 227.38399964 65 246 C45.53 246 26.06 246 6 246 C5.98018066 241.73094727 5.96036133 237.46189453 5.93994141 233.06347656 C5.87295061 218.93796252 5.79540994 204.81252082 5.71247292 190.68709183 C5.66245849 182.12523414 5.61601477 173.56338549 5.578125 165.00146484 C5.54507168 157.53451711 5.5051679 150.06764194 5.45720994 142.60077453 C5.43207685 138.65111245 5.41025749 134.70149767 5.39665604 130.75177765 C5.38371485 127.02533324 5.36153404 123.29905218 5.33261681 119.57269859 C5.31938898 117.57116746 5.315643 115.56958048 5.31230164 113.56800842 C5.15261187 96.12033437 2.07001734 78.96845755 -10.1015625 65.7109375 C-20.96805111 55.45880867 -34.54541471 51.26403416 -49.3515625 51.65625 C-62.72019539 52.91582141 -74.07411861 57.44660591 -83.3125 67.3125 C-95.89483458 82.51937063 -99.2864331 98.953074 -99.31884766 118.28393555 C-99.32816764 119.6845608 -99.33833932 121.0851806 -99.34928894 122.48579407 C-99.37636999 126.25360609 -99.39167261 130.0213812 -99.40471697 133.78926444 C-99.42044436 137.73974531 -99.44720346 141.69015183 -99.4727478 145.64057922 C-99.51936666 153.10587061 -99.55619202 160.57117625 -99.58942068 168.03653795 C-99.6277621 176.54211875 -99.6771404 185.04762456 -99.72740483 193.55314195 C-99.83047319 211.03537927 -99.91835795 228.51764859 -100 246 C-119.47 246 -138.94 246 -159 246 C-159 165.81 -159 85.62 -159 3 C-140.19 3 -121.38 3 -102 3 C-101.67 9.6 -101.34 16.2 -101 23 C-100.505 25.475 -100.505 25.475 -100 28 C-99.22398437 27.23816406 -98.44796875 26.47632813 -97.6484375 25.69140625 C-70.29061089 -0.6596729 -36.70150496 -7.81742056 0 0 Z " fill="#0B4A95" transform="translate(697,119)"/>
<path d="M0 0 C1.90954468 0.00845947 1.90954468 0.00845947 3.85766602 0.01708984 C13.81197621 0.14474972 23.14139187 0.99817118 32.8125 3.3125 C34.1126001 3.61051514 34.1126001 3.61051514 35.43896484 3.91455078 C47.41786693 6.71179309 58.36025802 10.28659942 69.08984375 16.34082031 C70.70199394 17.25016807 72.3347935 18.12263144 73.96875 18.9921875 C82.27411307 23.56013719 89.50038785 29.33084613 96.8125 35.3125 C95.48366216 38.15451859 93.98578895 40.54471169 92.046875 43.0078125 C91.49273926 43.71566895 90.93860352 44.42352539 90.36767578 45.15283203 C89.47411377 46.28374268 89.47411377 46.28374268 88.5625 47.4375 C87.3045827 49.04158449 86.04677358 50.64575381 84.7890625 52.25 C84.1384082 53.07757813 83.48775391 53.90515625 82.81738281 54.7578125 C79.50940113 58.97295136 76.22445022 63.20595544 72.9375 67.4375 C71.75271204 68.96102139 70.56782627 70.48446674 69.3828125 72.0078125 C68.88539551 72.64734863 68.38797852 73.28688477 67.87548828 73.94580078 C67.52470215 74.39681152 67.17391602 74.84782227 66.8125 75.3125 C62.95886885 73.95481501 60.14760381 72.19758117 56.9375 69.6875 C40.36004762 57.47603441 22.2478795 51.15870002 1.625 51.0625 C0.53896484 51.041875 -0.54707031 51.02125 -1.66601562 51 C-11.88459161 50.95090174 -21.06679044 52.79158761 -29.1875 59.3125 C-33.82581822 63.99123929 -36.34507027 67.23615196 -36.625 73.9375 C-36.56093069 79.29369451 -35.78622527 82.48166625 -32.13500977 86.43701172 C-25.92117666 92.42104906 -19.0610031 95.42759331 -10.8125 97.5625 C-9.94367188 97.80484375 -9.07484375 98.0471875 -8.1796875 98.296875 C-2.91999864 99.72850629 2.33797855 100.79647002 7.70507812 101.73144531 C66.53188281 112.73142922 66.53188281 112.73142922 86.8125 133.3125 C87.67101562 134.15554687 87.67101562 134.15554687 88.546875 135.015625 C100.41772931 147.62075896 103.13863864 165.31480809 102.96484375 181.921875 C102.08551374 201.49260453 95.45956477 219.1170215 81.8125 233.3125 C75.73046266 238.77482466 69.06714654 242.93297289 61.8125 246.625 C61.19689209 246.93848389 60.58128418 247.25196777 59.94702148 247.57495117 C24.68046689 264.66682586 -20.16578743 260.97843192 -56.390625 248.9375 C-73.71947633 242.92151633 -95.85570793 232.24608417 -107.1875 217.3125 C-107.30630179 212.52874811 -104.2175358 209.38082193 -101.3125 205.875 C-100.31097597 204.63429371 -99.30968056 203.39340285 -98.30859375 202.15234375 C-97.53491455 201.20270752 -97.53491455 201.20270752 -96.74560547 200.23388672 C-94.25450668 197.16197393 -91.81513892 194.04993504 -89.375 190.9375 C-88.91714111 190.35540771 -88.45928223 189.77331543 -87.98754883 189.17358398 C-84.65675404 184.93312091 -81.39515413 180.64716775 -78.1875 176.3125 C-73.8458082 177.76502212 -70.89988777 179.98359656 -67.375 182.875 C-44.70774145 200.85055628 -16.0735663 209.73945175 12.8125 207.3125 C23.38861673 205.71146113 33.95235223 201.66949007 40.66015625 193.06640625 C44.10060993 187.82991912 44.61066009 182.38232618 43.41796875 176.30078125 C41.99702596 171.48791052 39.76482047 168.54051812 35.609375 165.75 C24.73640278 160.16165674 12.52477827 157.57135581 0.60546875 155.26953125 C-67.86166386 141.9225702 -67.86166386 141.9225702 -85.0546875 117.6796875 C-96.3521999 100.47559186 -98.999586 80.15720211 -94.9296875 60.05859375 C-89.63837359 40.48073229 -76.9143905 24.45479094 -59.47314453 14.31591797 C-41.03994833 3.93534918 -21.0722056 -0.09869886 0 0 Z " fill="#0C4A95" transform="translate(126.1875,112.6875)"/>
<path d="M0 0 C1.11963135 -0.00926514 2.2392627 -0.01853027 3.39282227 -0.02807617 C14.63009985 0.01389389 25.43205709 1.76795531 36.3125 4.5 C37.16078369 4.71180908 38.00906738 4.92361816 38.88305664 5.1418457 C46.44120112 7.11362865 53.31011133 9.94529899 60.375 13.25 C61.59896484 13.72373047 61.59896484 13.72373047 62.84765625 14.20703125 C72.74329168 18.29070151 81.42490503 24.50610529 89.73046875 31.1484375 C92.37703319 33.31158196 92.37703319 33.31158196 95.375 35.25 C93.69695981 39.11230479 91.17145705 42.23661922 88.5625 45.5 C88.08546631 46.10263672 87.60843262 46.70527344 87.11694336 47.32617188 C84.40299306 50.74364175 81.65878223 54.13554828 78.8984375 57.515625 C78.03375854 58.57475098 78.03375854 58.57475098 77.15161133 59.65527344 C76.03459891 61.02031639 74.9147776 62.38306715 73.79174805 63.74316406 C70.74739255 67.45493778 67.96449785 71.20663951 65.375 75.25 C61.21502538 73.80503624 58.09835456 71.73036652 54.5625 69.125 C37.99929762 57.3335545 20.3922652 51.077277 0 51.0625 C-0.88171875 51.05025391 -1.7634375 51.03800781 -2.671875 51.02539062 C-13.29013486 51.00203668 -24.34412285 52.57904274 -32.515625 59.95703125 C-36.31056477 64.18488891 -38.39689552 67.83209251 -38.9375 73.5625 C-38.42982821 79.55302712 -37.11072872 84.24221415 -32.625 88.4375 C-19.64754132 98.35828453 -1.82950337 100.71668125 13.8125 103.5625 C38.21754602 108.06968933 64.91529501 113.51482268 83.375 131.25 C84.02726562 131.86230469 84.67953125 132.47460938 85.3515625 133.10546875 C93.74325668 141.77442155 98.17931169 153.58650372 100.375 165.25 C100.601875 166.384375 100.82875 167.51875 101.0625 168.6875 C102.9251081 189.92123234 98.93085916 210.78389109 85.47680664 227.72851562 C73.05530599 242.37068389 54.73014439 250.7855859 36.375 255.25 C35.70291504 255.41371094 35.03083008 255.57742188 34.33837891 255.74609375 C8.40806362 261.67022526 -22.26170425 259.89705097 -47.625 252.25 C-48.76582031 251.91355469 -49.90664062 251.57710937 -51.08203125 251.23046875 C-73.34760738 244.25936167 -91.34730663 232.74401778 -108.625 217.25 C-108.1024641 212.9160258 -106.72307172 210.76384861 -103.875 207.5 C-99.17309597 201.96437177 -94.76687217 196.24883551 -90.40722656 190.44042969 C-86.68378848 185.51827132 -82.74505176 180.84485041 -78.625 176.25 C-75.26567945 178.18207676 -72.13342553 180.30307689 -69.02246094 182.61230469 C-45.25487174 200.16312869 -17.49382848 210.63159564 12.4375 206.5625 C23.51969392 204.44384528 33.38824937 200.84537986 40.3125 191.6875 C42.3304491 185.15884114 42.59214437 178.16056262 39.9375 171.8125 C33.39116017 165.26616017 26.14157734 162.07655303 17.3125 159.6875 C16.27174316 159.39431885 15.23098633 159.1011377 14.15869141 158.79907227 C5.93112481 156.53782087 -2.36375926 154.7527503 -10.73120117 153.09790039 C-21.17691453 151.01013069 -31.39717395 148.21036721 -41.625 145.25 C-42.47352539 145.01410156 -43.32205078 144.77820313 -44.19628906 144.53515625 C-49.627337 142.98638619 -54.60493521 141.08302969 -59.625 138.5 C-60.31070068 138.15074463 -60.99640137 137.80148926 -61.70288086 137.44165039 C-78.9934446 128.45348751 -89.40402407 116.91481278 -95.6796875 98.31640625 C-101.19973702 80.41046048 -98.37725524 59.89142477 -89.9375 43.4375 C-86.35411374 36.88268938 -81.99391368 31.46154897 -76.625 26.25 C-75.93921875 25.55519531 -75.2534375 24.86039063 -74.546875 24.14453125 C-54.74784468 5.18879296 -26.38859738 0.13517825 0 0 Z " fill="#0C4A95" transform="translate(1368.625,112.75)"/>
<path d="M0 0 C19.8 0 39.6 0 60 0 C60 25.41 60 50.82 60 77 C81.12 77 102.24 77 124 77 C124 92.84 124 108.68 124 125 C102.88 125 81.76 125 60 125 C60.03666734 146.222802 60.03666734 146.222802 60.12156963 167.44525909 C60.16020793 175.04101168 60.19172207 182.63656337 60.19555664 190.23242188 C60.19894794 196.89813082 60.22850712 203.5632717 60.27343178 210.22885132 C60.28633642 212.76106889 60.29073969 215.29334574 60.28615379 217.82559204 C59.86279334 242.17777737 59.86279334 242.17777737 71 263 C73.00948941 264.45386122 73.00948941 264.45386122 75.0625 265.3125 C75.71347656 265.61800781 76.36445312 265.92351562 77.03515625 266.23828125 C88.32343231 270.61445189 103.92726075 269.00007833 115.34375 265.75390625 C118.21088944 264.94014461 121.05537081 264.44602471 124 264 C124.20753906 264.91394531 124.41507813 265.82789063 124.62890625 266.76953125 C126.2589604 273.8515538 127.95998403 280.90495141 129.82421875 287.9296875 C130.14124756 289.12746826 130.45827637 290.32524902 130.78491211 291.55932617 C131.42130876 293.9518105 132.06391334 296.34265335 132.71313477 298.73168945 C133.00889404 299.84503662 133.30465332 300.95838379 133.609375 302.10546875 C133.87717773 303.09699951 134.14498047 304.08853027 134.42089844 305.11010742 C135.02910786 308.14525706 135.10196352 310.91273944 135 314 C118.75379175 319.98295588 103.68417813 322.27136049 86.4375 322.375 C85.74529358 322.38294586 85.05308716 322.39089172 84.33990479 322.39907837 C60.95346131 322.60501198 39.57919194 316.79921786 22.125 300.625 C0.45395668 277.34472079 -0.48482499 244.27029561 -0.29296875 214.453125 C-0.28735898 211.85854337 -0.28309543 209.26395853 -0.28010559 206.66937256 C-0.26991737 200.59611196 -0.24640362 194.52304433 -0.21605712 188.44985557 C-0.18220627 181.52088963 -0.16595104 174.59191454 -0.15097082 167.66288614 C-0.1198419 153.44182038 -0.06495562 139.22095057 0 125 C-13.53 125 -27.06 125 -41 125 C-41 109.16 -41 93.32 -41 77 C-27.47 77 -13.94 77 0 77 C0 51.59 0 26.18 0 0 Z " fill="#0C4A95" transform="translate(830,45)"/>
<path d="M0 0 C0.85851562 0.2784375 1.71703125 0.556875 2.6015625 0.84375 C17.03096897 6.02582786 28.98060651 17.16467048 37 30 C37.38800781 30.59425781 37.77601563 31.18851563 38.17578125 31.80078125 C41.30425475 36.86190248 43.17012169 42.37481852 45 48 C45.30292969 48.87011719 45.60585938 49.74023438 45.91796875 50.63671875 C51.92806163 70.4164141 47.86006022 92.3017307 38.32128906 110.17358398 C29.28994996 126.52485404 16.64013926 136.84201716 -0.94921875 143.0390625 C-19.29985208 148.17244228 -38.00642631 145.72404842 -54.8125 137.25 C-72.52429398 126.78756098 -83.73321492 110.81148296 -89 91 C-94.46583377 69.27417018 -89.99339022 47.12849898 -79 28 C-76.55102034 24.44408153 -73.88708368 21.20662498 -71 18 C-70.40832031 17.30390625 -69.81664062 16.6078125 -69.20703125 15.890625 C-52.3826718 -2.61975768 -23.17752456 -7.88443651 0 0 Z " fill="#FCFCFD" transform="translate(396,174)"/>
<path d="M0 0 C10.07613809 -0.33685376 19.26195509 -0.16669657 28.93847656 3.078125 C28.68453125 3.77035156 28.43058594 4.46257812 28.16894531 5.17578125 C22.91162603 20.12074504 21.49226277 33.94500761 21.37597656 49.640625 C21.12563805 75.97674179 18.09529034 103.07366459 -1.06152344 123.078125 C-13.0799228 134.80622486 -28.07413646 141.48202389 -44.87402344 141.453125 C-45.751875 141.45296387 -46.62972656 141.45280273 -47.53417969 141.45263672 C-54.31637217 141.33349687 -59.97587728 140.18907098 -66.06152344 137.078125 C-66.81433594 136.70429688 -67.56714844 136.33046875 -68.34277344 135.9453125 C-68.90996094 135.65914062 -69.47714844 135.37296875 -70.06152344 135.078125 C-65.8765491 105.03375699 -47.33518736 72.59334177 -25.06152344 52.078125 C-36.55545927 55.56861471 -47.23340475 61.99566943 -56.06152344 70.078125 C-56.59632324 70.56522949 -57.13112305 71.05233398 -57.68212891 71.55419922 C-70.2130748 83.10643804 -78.73055413 95.9422296 -86.46777344 111.03125 C-88.06152344 114.078125 -88.06152344 114.078125 -90.06152344 117.078125 C-98.03596044 104.44508219 -102.23060982 94.29714401 -102.31152344 79.328125 C-102.33214844 78.3896875 -102.35277344 77.45125 -102.37402344 76.484375 C-102.47298447 58.57242735 -92.98172285 44.24954704 -81.06152344 31.640625 C-60.28221917 11.28946574 -28.70044851 1.08765319 0 0 Z " fill="#FBFCFB" transform="translate(1148.0615234375,173.921875)"/>
<path d="M0 0 C-1.98 0.33 -3.96 0.66 -6 1 C-6 1.66 -6 2.32 -6 3 C-8.03553489 4.15669119 -10.07872468 5.29991741 -12.125 6.4375 C-13.26195312 7.07558594 -14.39890625 7.71367187 -15.5703125 8.37109375 C-18.82752964 9.9180864 -21.43794061 10.61564405 -25 11 C-21.80665861 7.37447707 -18.23814624 5.36234073 -13.9375 3.3125 C-13.31294922 3.00505859 -12.68839844 2.69761719 -12.04492188 2.38085938 C-4.37776712 -1.35861738 -4.37776712 -1.35861738 0 0 Z " fill="#235CA2" transform="translate(1610,122)"/>
<path d="M0 0 C0.33 0 0.66 0 1 0 C1 8.91 1 17.82 1 27 C0.01 26.34 -0.98 25.68 -2 25 C-1.505 23.515 -1.505 23.515 -1 22 C-0.93028538 20.46889263 -0.91553471 18.93488003 -0.9375 17.40234375 C-0.94523437 16.51869141 -0.95296875 15.63503906 -0.9609375 14.72460938 C-0.97382813 13.80486328 -0.98671875 12.88511719 -1 11.9375 C-1.02545932 10.11333995 -1.04650934 8.28911138 -1.0625 6.46484375 C-1.07410156 5.656521 -1.08570313 4.84819824 -1.09765625 4.01538086 C-1 2 -1 2 0 0 Z " fill="#EFF2F6" transform="translate(442,122)"/>
<path d="M0 0 C0.66 0.33 1.32 0.66 2 1 C0.38731308 3.71224618 -1.24901874 6.37352812 -3 9 C-3.45601261 11.50896686 -3.45601261 11.50896686 -3.625 14.1875 C-3.69976562 15.08855469 -3.77453125 15.98960937 -3.8515625 16.91796875 C-3.90054688 17.60503906 -3.94953125 18.29210937 -4 19 C-4.33 19 -4.66 19 -5 19 C-5.68902754 7.17169389 -5.68902754 7.17169389 -3.0625 3.3125 C-1 1 -1 1 0 0 Z " fill="#C9D9EA" transform="translate(94,174)"/>
<path d="M0 0 C-0.66 0 -1.32 0 -2 0 C-2 0.66 -2 1.32 -2 2 C-8.27 1.67 -14.54 1.34 -21 1 C-21 0.67 -21 0.34 -21 0 C-18.25034772 -0.19511725 -15.50057868 -0.38136433 -12.75 -0.5625 C-11.97269531 -0.61857422 -11.19539062 -0.67464844 -10.39453125 -0.73242188 C-9.64042969 -0.78076172 -8.88632812 -0.82910156 -8.109375 -0.87890625 C-7.41811523 -0.9260376 -6.72685547 -0.97316895 -6.01464844 -1.02172852 C-3.86382928 -0.99853136 -2.05915129 -0.5995764 0 0 Z " fill="#4476B2" transform="translate(939,314)"/>
<path d="M0 0 C0.66 0.33 1.32 0.66 2 1 C-0.31 3.64 -2.62 6.28 -5 9 C-5.99 8.67 -6.98 8.34 -8 8 C-5.36 5.36 -2.72 2.72 0 0 Z " fill="#1C5299" transform="translate(55,135)"/>
<path d="M0 0 C0.66 0.33 1.32 0.66 2 1 C-2.625 5.875 -2.625 5.875 -6 7 C-6.66 6.34 -7.32 5.68 -8 5 C-6.71475739 4.13619741 -5.42157581 3.28419631 -4.125 2.4375 C-3.04605469 1.72400391 -3.04605469 1.72400391 -1.9453125 0.99609375 C-1.30335938 0.66738281 -0.66140625 0.33867188 0 0 Z " fill="#2661A8" transform="translate(624,126)"/>
<path d="M0 0 C4.571279 0.54855348 8.67435795 1.41744803 13 3 C11.02 3.99 11.02 3.99 9 5 C9 4.34 9 3.68 9 3 C6.03 2.67 3.06 2.34 0 2 C0 1.34 0 0.68 0 0 Z " fill="#2B61A1" transform="translate(1330,314)"/>
<path d="M0 0 C4.455 0.99 4.455 0.99 9 2 C8.67 3.32 8.34 4.64 8 6 C4.08597051 4.73058503 2.20927127 3.48832306 0 0 Z " fill="#135199" transform="translate(185,182)"/>
<path d="M0 0 C-0.66 0 -1.32 0 -2 0 C-2.33 0.66 -2.66 1.32 -3 2 C-3.99 2 -4.98 2 -6 2 C-6.33 2.66 -6.66 3.32 -7 4 C-8.98 3.34 -10.96 2.68 -13 2 C-8.62836676 -0.42868513 -4.86219789 -1.62073263 0 0 Z " fill="#4879B2" transform="translate(398,317)"/>
<path d="M0 0 C-2.97 2.475 -2.97 2.475 -6 5 C-6.99 4.01 -7.98 3.02 -9 2 C-3.375 -1.125 -3.375 -1.125 0 0 Z " fill="#44A859" transform="translate(1124,226)"/>
<path d="M0 0 C0.33 0.99 0.66 1.98 1 3 C-0.21484375 4.82421875 -0.21484375 4.82421875 -1.9375 6.6875 C-2.50339844 7.31011719 -3.06929687 7.93273437 -3.65234375 8.57421875 C-4.09707031 9.04472656 -4.54179688 9.51523438 -5 10 C-5.66 9.67 -6.32 9.34 -7 9 C-4.69 6.03 -2.38 3.06 0 0 Z " fill="#DDE8F2" transform="translate(1442,176)"/>
<path d="M0 0 C4.23429756 1.31061591 8.07407404 2.94356259 12 5 C8.98968256 5.93423645 8.13349732 6.04449911 5 5 C5 4.34 5 3.68 5 3 C3.35 2.67 1.7 2.34 0 2 C0 1.34 0 0.68 0 0 Z " fill="#164E98" transform="translate(189,127)"/>
<path d="M0 0 C1.77007714 -0.08114106 3.54122098 -0.13925505 5.3125 -0.1875 C6.29863281 -0.22230469 7.28476563 -0.25710938 8.30078125 -0.29296875 C11 0 11 0 12.85546875 1.51171875 C13.23316406 2.00285156 13.61085938 2.49398438 14 3 C13.175 2.855625 12.35 2.71125 11.5 2.5625 C7.67313722 1.94746848 3.84783293 1.46439363 0 1 C0 0.67 0 0.34 0 0 Z " fill="#3A6CA8" transform="translate(112,264)"/>
<path d="M0 0 C0.33 0 0.66 0 1 0 C1 1.98 1 3.96 1 6 C1.66 6 2.32 6 3 6 C2.67 8.31 2.34 10.62 2 13 C0.21590198 9.93753253 -0.22880021 7.77920727 -0.125 4.25 C-0.10695313 3.45078125 -0.08890625 2.6515625 -0.0703125 1.828125 C-0.04710937 1.22484375 -0.02390625 0.6215625 0 0 Z " fill="#5BB167" transform="translate(986,247)"/>
<path d="M0 0 C0.66 0.33 1.32 0.66 2 1 C-1.465 3.97 -1.465 3.97 -5 7 C-5.66 6.67 -6.32 6.34 -7 6 C-4.69 4.02 -2.38 2.04 0 0 Z " fill="#25599D" transform="translate(286,149)"/>
<path d="M0 0 C0.66 0.33 1.32 0.66 2 1 C0.35 2.98 -1.3 4.96 -3 7 C-3.99 6.67 -4.98 6.34 -6 6 C-4.02 4.02 -2.04 2.04 0 0 Z " fill="#275A9E" transform="translate(1576,139)"/>
<path d="M0 0 C-5.29230769 3.07692308 -5.29230769 3.07692308 -8.875 2.6875 C-9.57625 2.460625 -10.2775 2.23375 -11 2 C-11 1.67 -11 1.34 -11 1 C-3.57142857 -1.42857143 -3.57142857 -1.42857143 0 0 Z " fill="#295EA2" transform="translate(150,319)"/>
<path d="M0 0 C7.42857143 -0.28571429 7.42857143 -0.28571429 11 2 C11 2.66 11 3.32 11 4 C7.37 3.01 3.74 2.02 0 1 C0 0.67 0 0.34 0 0 Z " fill="#3768A4" transform="translate(1388,272)"/>
<path d="M0 0 C0.66 0.66 1.32 1.32 2 2 C0.35 3.65 -1.3 5.3 -3 7 C-3.33 6.34 -3.66 5.68 -4 5 C-2.68 3.35 -1.36 1.7 0 0 Z " fill="#41A751" transform="translate(1080,255)"/>
<path d="M0 0 C0 0.66 0 1.32 0 2 C-1.98 2.99 -3.96 3.98 -6 5 C-6 4.34 -6 3.68 -6 3 C-6.66 2.67 -7.32 2.34 -8 2 C-5.09399739 0.74335022 -3.20395416 0 0 0 Z " fill="#275EA3" transform="translate(324,126)"/>
<path d="M0 0 C0 0.33 0 0.66 0 1 C-4.79137588 2.6290678 -8.05632546 3.20577428 -13 2 C-13 1.67 -13 1.34 -13 1 C-8.59085217 -0.10228696 -4.51617599 -0.07654536 0 0 Z " fill="#4C7DB6" transform="translate(112,114)"/>
</svg>
